<svg width="24" height="24" viewBox="0 0 24 24" fill="none" xmlns="http://www.w3.org/2000/svg">
<path d="M19.9597 8.9599C19.2897 8.2199 18.2797 7.7899 16.8797 7.6399V6.8799C16.8797 5.5099 16.2997 4.1899 15.2797 3.2699C14.2497 2.3299 12.9097 1.8899 11.5197 2.0199C9.12975 2.2499 7.11975 4.5599 7.11975 7.0599V7.6399C5.71975 7.7899 4.70975 8.2199 4.03975 8.9599C3.06975 10.0399 3.09975 11.4799 3.20975 12.4799L3.90975 18.0499C4.11975 19.9999 4.90975 21.9999 9.20975 21.9999H14.7897C19.0897 21.9999 19.8797 19.9999 20.0897 18.0599L20.7897 12.4699C20.8997 11.4799 20.9197 10.0399 19.9597 8.9599ZM11.6597 3.4099C12.6597 3.3199 13.6097 3.6299 14.3497 4.2999C15.0797 4.9599 15.4897 5.8999 15.4897 6.8799V7.5799H8.50975V7.0599C8.50975 5.2799 9.97975 3.5699 11.6597 3.4099ZM8.41975 13.1499H8.40975C7.85975 13.1499 7.40975 12.6999 7.40975 12.1499C7.40975 11.5999 7.85975 11.1499 8.40975 11.1499C8.96975 11.1499 9.41975 11.5999 9.41975 12.1499C9.41975 12.6999 8.96975 13.1499 8.41975 13.1499ZM15.4197 13.1499H15.4097C14.8597 13.1499 14.4097 12.6999 14.4097 12.1499C14.4097 11.5999 14.8597 11.1499 15.4097 11.1499C15.9697 11.1499 16.4197 11.5999 16.4197 12.1499C16.4197 12.6999 15.9697 13.1499 15.4197 13.1499Z" fill="#255849"/>
</svg>
