<svg width="19" height="19" viewBox="0 0 19 19" fill="none" xmlns="http://www.w3.org/2000/svg">
<path d="M11 9.5C11 10.33 10.33 11 9.5 11C8.67 11 8 10.33 8 9.5C8 8.67 8.67 8 9.5 8C10.33 8 11 8.67 11 9.5ZM19 9.5C19 14.74 14.74 19 9.5 19C4.26 19 0 14.74 0 9.5C0 4.26 4.26 0 9.5 0C14.74 0 19 4.26 19 9.5ZM14.19 4.81006C13.81 4.44006 13.28 4.28992 12.76 4.41992L8.70999 5.42993C7.08999 5.83993 5.83999 7.08996 5.42999 8.70996L4.42001 12.76C4.29001 13.28 4.44 13.8099 4.81 14.1899C5.1 14.4699 5.48 14.6299 5.87 14.6299C5.99 14.6299 6.11999 14.6101 6.23999 14.5801L10.29 13.5701C11.91 13.1601 13.16 11.91 13.57 10.29L14.58 6.23999C14.71 5.71999 14.56 5.19006 14.19 4.81006Z" fill="#5E4B3C"/>
</svg>
