<svg width="19" height="19" viewBox="0 0 19 19" fill="none" xmlns="http://www.w3.org/2000/svg">
<path d="M14.5482 4.46125L14.5484 4.46113L14.5388 4.45182C14.0377 3.96393 13.331 3.76188 12.639 3.93478C12.6389 3.9348 12.6388 3.93483 12.6387 3.93485L8.589 4.94479L8.58732 4.94521C6.78931 5.40027 5.40032 6.78929 4.94527 8.58729L4.94485 8.58898L3.93494 12.6387C3.76194 13.3307 3.96373 14.0375 4.45176 14.5387L4.45715 14.5443L4.4627 14.5496C4.84026 14.9142 5.34277 15.1299 5.87 15.1299C6.04073 15.1299 6.21237 15.1024 6.36098 15.0652C6.36107 15.0652 6.36116 15.0652 6.36126 15.0651L10.411 14.0552L10.4127 14.0548C12.2107 13.5997 13.5997 12.2107 14.0547 10.4127L14.0552 10.411L15.0651 6.36126C15.0651 6.36116 15.0651 6.36107 15.0651 6.36097C15.238 5.66907 15.0362 4.9624 14.5482 4.46125ZM10.5 9.5C10.5 10.0539 10.0539 10.5 9.5 10.5C8.94614 10.5 8.5 10.0539 8.5 9.5C8.5 8.94614 8.94614 8.5 9.5 8.5C10.0539 8.5 10.5 8.94614 10.5 9.5ZM18.5 9.5C18.5 14.4639 14.4639 18.5 9.5 18.5C4.53614 18.5 0.5 14.4639 0.5 9.5C0.5 4.53614 4.53614 0.5 9.5 0.5C14.4639 0.5 18.5 4.53614 18.5 9.5Z" fill="#9E9E9E" stroke="#9E9E9E"/>
</svg>
