<svg width="25" height="25" viewBox="0 0 25 25" fill="none" xmlns="http://www.w3.org/2000/svg">
<path d="M15.8828 3.45386H9.88281C6.30281 3.45386 3.38281 6.37386 3.38281 9.95386V15.9539C3.38281 19.5339 6.30281 22.4539 9.88281 22.4539H15.8828C19.4628 22.4539 22.3828 19.5339 22.3828 15.9539V9.95386C22.3828 6.37386 19.4628 3.45386 15.8828 3.45386ZM16.8828 13.9539H13.8828V16.9539C13.8828 17.5039 13.4328 17.9539 12.8828 17.9539C12.3328 17.9539 11.8828 17.5039 11.8828 16.9539V13.9539H8.88281C8.33281 13.9539 7.88281 13.5039 7.88281 12.9539C7.88281 12.4039 8.33281 11.9539 8.88281 11.9539H11.8828V8.95386C11.8828 8.40386 12.3328 7.95386 12.8828 7.95386C13.4328 7.95386 13.8828 8.40386 13.8828 8.95386V11.9539H16.8828C17.4328 11.9539 17.8828 12.4039 17.8828 12.9539C17.8828 13.5039 17.4328 13.9539 16.8828 13.9539Z" fill="#255849"/>
</svg>
