<svg width="19" height="19" viewBox="0 0 19 19" fill="none" xmlns="http://www.w3.org/2000/svg">
<path d="M12.5 0H6.5C2.92 0 0 2.92 0 6.5V12.5C0 16.08 2.92 19 6.5 19H12.5C16.08 19 19 16.08 19 12.5V6.5C19 2.92 16.08 0 12.5 0ZM13.5 10.5H10.5V13.5C10.5 14.05 10.05 14.5 9.5 14.5C8.95 14.5 8.5 14.05 8.5 13.5V10.5H5.5C4.95 10.5 4.5 10.05 4.5 9.5C4.5 8.95 4.95 8.5 5.5 8.5H8.5V5.5C8.5 4.95 8.95 4.5 9.5 4.5C10.05 4.5 10.5 4.95 10.5 5.5V8.5H13.5C14.05 8.5 14.5 8.95 14.5 9.5C14.5 10.05 14.05 10.5 13.5 10.5Z" fill="#5E4B3C"/>
</svg>
