<svg width="46" height="54" viewBox="0 0 46 54" fill="none" xmlns="http://www.w3.org/2000/svg">
<g filter="url(#filter0_d_501_6673)">
<path d="M31.6023 0C31.7094 0 31.8164 0 31.9296 0C32.1921 3.24402 30.9539 5.66794 29.4491 7.42326C27.9725 9.16647 25.9505 10.8572 22.6803 10.6006C22.4621 7.40307 23.7024 5.15892 25.2052 3.40763C26.5989 1.77552 29.1542 0.32319 31.6023 0Z" fill="black"/>
<path d="M41.5021 33.7653C41.5021 33.7976 41.5021 33.8259 41.5021 33.8562C40.5831 36.6397 39.2721 39.0252 37.6723 41.2391C36.2119 43.2489 34.4223 45.9536 31.2267 45.9536C28.4655 45.9536 26.6314 44.1781 23.8014 44.1296C20.8079 44.0811 19.1616 45.6143 16.4246 46.0001C16.1115 46.0001 15.7984 46.0001 15.4914 46.0001C13.4816 45.7092 11.8596 44.1175 10.6779 42.6833C7.19352 38.4455 4.50094 32.9715 4 25.9663C4 25.2796 4 24.5948 4 23.908C4.21209 18.8945 6.64814 14.8183 9.88609 12.8428C11.595 11.7924 13.9441 10.8976 16.56 11.2976C17.681 11.4713 18.8263 11.8551 19.8302 12.2348C20.7816 12.6004 21.9714 13.2488 23.0985 13.2145C23.862 13.1923 24.6215 12.7943 25.3911 12.5136C27.6454 11.6995 29.8552 10.7663 32.7679 11.2046C36.2685 11.7339 38.753 13.2892 40.2881 15.6889C37.3269 17.5735 34.9858 20.4135 35.3858 25.2634C35.7413 29.6689 38.3026 32.2463 41.5021 33.7653Z" fill="black"/>
</g>
<defs>
<filter id="filter0_d_501_6673" x="0" y="0" width="45.502" height="54" filterUnits="userSpaceOnUse" color-interpolation-filters="sRGB">
<feFlood flood-opacity="0" result="BackgroundImageFix"/>
<feColorMatrix in="SourceAlpha" type="matrix" values="0 0 0 0 0 0 0 0 0 0 0 0 0 0 0 0 0 0 127 0" result="hardAlpha"/>
<feOffset dy="4"/>
<feGaussianBlur stdDeviation="2"/>
<feComposite in2="hardAlpha" operator="out"/>
<feColorMatrix type="matrix" values="0 0 0 0 0 0 0 0 0 0 0 0 0 0 0 0 0 0 0.25 0"/>
<feBlend mode="normal" in2="BackgroundImageFix" result="effect1_dropShadow_501_6673"/>
<feBlend mode="normal" in="SourceGraphic" in2="effect1_dropShadow_501_6673" result="shape"/>
</filter>
</defs>
</svg>
