<svg width="151" height="39" viewBox="0 0 151 39" fill="none" xmlns="http://www.w3.org/2000/svg">
<path d="M3.75947 0.423129C3.93958 0.301001 4.09994 0.154201 4.25415 0C4.23811 7.85932 4.32323 15.7186 4.29856 23.5792C5.45075 24.3835 6.60417 25.1903 7.76006 25.9909C7.76006 22.6922 7.75513 19.3936 7.76376 16.0961C10.0015 14.5677 12.2134 13.001 14.4512 11.4701C14.4549 12.04 14.4672 12.6112 14.4339 13.1799C13.6271 13.7116 12.8351 14.2642 12.053 14.8292C12.0752 20.7481 12.0493 26.6657 12.053 32.5858C11.9186 34.5238 11.9876 36.4717 11.9642 38.4146C11.8507 38.2715 11.7199 38.1469 11.5719 38.0433C10.3494 37.2377 9.15774 36.3878 7.94634 35.565C7.71195 35.4564 7.82298 35.1603 7.7909 34.9642C7.7909 32.5414 7.765 30.1198 7.76376 27.6982C5.18182 25.9009 2.59247 24.1134 0.0080632 22.3209C-0.0129082 17.8664 0.0142324 13.413 0.00929801 8.96094C0.152397 6.95509 0.054941 4.94184 0.104285 2.93476C1.3416 2.12797 2.5308 1.24595 3.75947 0.423129Z" fill="#5E4B3C"/>
<path d="M19.7977 22.3149C17.5661 23.8224 15.3691 25.3928 13.1436 26.9077V25.2361C13.9035 24.6711 14.7066 24.1567 15.4764 23.5967C15.4702 19.0323 15.4937 14.468 15.4702 9.9036C13.9553 8.76004 12.3652 7.68927 10.7936 6.61973C9.74627 7.37717 8.6718 8.09266 7.62323 8.84886C7.63433 8.28017 7.62323 7.71147 7.6516 7.14525C8.46825 6.63947 9.80055 5.68095 10.8244 4.97656C13.5927 6.89359 17.1566 9.35711 19.8064 11.1866C19.8175 14.8948 19.8483 18.6055 19.7977 22.3149Z" fill="#D1B06F"/>
<path d="M27.5264 27.1987C24.9901 29.0059 21.3534 31.5003 18.5679 33.4469C17.5921 32.7709 16.2463 31.8124 15.363 31.2486C15.3383 30.6812 15.3408 30.1125 15.347 29.5438C16.3277 30.2568 17.5379 31.108 18.5642 31.8001C19.9619 30.8305 22.117 29.3378 23.2532 28.5372C23.2482 23.9666 23.2051 19.3974 23.2223 14.8268C22.4341 14.2729 21.6445 13.7154 20.8415 13.175C20.8267 12.6063 20.8304 12.0414 20.839 11.4727C22.9337 12.9098 25.4169 14.6344 27.5387 16.1073C27.5264 19.8661 27.5153 24.6451 27.5264 27.1987Z" fill="#D1B06F"/>
<path d="M40.5959 26.4038H39.0194V10.3994H40.5959V17.9716C40.9781 16.204 42.2203 14.6991 44.4179 14.6991C47.4277 14.6991 49.2192 17.0639 49.2192 20.6709C49.2192 24.3017 47.4277 26.6666 44.4179 26.6666C42.2203 26.6666 40.9781 25.1617 40.5959 23.394V26.4038ZM40.5959 21.7458C40.5959 23.6568 41.6231 25.3528 43.9401 25.3528C46.0422 25.3528 47.6188 23.8957 47.6188 20.6709C47.6188 17.47 46.0422 16.0129 43.9401 16.0129C41.6231 16.0129 40.5959 17.685 40.5959 19.596V21.7458ZM53.4259 26.4038H51.8494V14.938H53.4259V18.0672C53.8559 16.2518 55.1219 14.6752 57.0807 14.6752C58.4184 14.6752 59.5172 15.5352 59.5172 17.1117C59.5172 17.9716 59.3022 18.6883 59.0872 19.0705H57.3912C57.7017 18.7121 57.9884 17.9716 57.9884 17.2789C57.9884 16.5384 57.5584 15.8696 56.5074 15.8696C54.7875 15.8696 53.4259 17.7805 53.4259 19.7632V26.4038ZM65.8833 26.6427C62.7302 26.6427 60.5326 24.3017 60.5326 20.6709C60.5326 17.04 62.7302 14.6991 65.8833 14.6991C69.0364 14.6991 71.2579 17.04 71.2579 20.6709C71.2579 24.3017 69.0364 26.6427 65.8833 26.6427ZM65.8833 25.305C68.1526 25.305 69.6813 23.7046 69.6813 20.6709C69.6813 17.6133 68.1526 15.989 65.8833 15.989C63.6379 15.989 62.1091 17.6133 62.1091 20.6709C62.1091 23.7046 63.6379 25.305 65.8833 25.305ZM77.4141 26.4038H75.3837L72.2544 14.938H73.9982L75.8853 22.6774L76.4108 25.2333L77.1035 22.6774L79.54 14.938H81.4749L83.9114 22.6774L84.6041 25.2333L85.1296 22.6774L86.9928 14.938H88.7605L85.6312 26.4038H83.6008L81.1644 18.7599L80.5194 16.2518L79.8506 18.7599L77.4141 26.4038ZM91.9627 26.4038H90.3861V14.938H91.9627V18.1389C92.3687 16.2757 93.6825 14.6991 95.9757 14.6991C98.245 14.6991 99.7738 16.0368 99.7738 18.6644V26.4038H98.1972V19.0227C98.1972 17.1595 97.3373 16.0129 95.3546 16.0129C92.942 16.0129 91.9627 17.7805 91.9627 19.7632V26.4038Z" fill="#5E4B3C"/>
<path d="M109.855 30.8468H108.278V14.938H109.855V17.9478C110.237 16.1562 111.479 14.6513 113.677 14.6513C116.663 14.6513 118.454 17.04 118.454 20.647C118.454 24.2779 116.663 26.6427 113.677 26.6427C111.479 26.6427 110.237 25.1378 109.855 23.3701V30.8468ZM109.855 21.7219C109.855 23.6329 110.882 25.305 113.199 25.305C115.277 25.305 116.854 23.8718 116.854 20.647C116.854 17.4222 115.277 15.989 113.199 15.989C110.882 15.989 109.855 17.6611 109.855 19.5721V21.7219ZM124.763 26.6427C122.518 26.6427 121.013 25.305 121.013 22.6535V14.938H122.566V22.3191C122.566 24.1584 123.426 25.305 125.385 25.305C127.869 25.305 128.824 23.5612 128.824 21.5547V14.938H130.377V26.4038H128.824V23.1313C128.418 25.0422 127.128 26.6427 124.763 26.6427ZM135.305 26.4038H133.728V10.3994H135.305V26.4038ZM140.227 30.8468H138.65V14.938H140.227V17.9478C140.609 16.1562 141.851 14.6513 144.049 14.6513C147.035 14.6513 148.826 17.04 148.826 20.647C148.826 24.2779 147.035 26.6427 144.049 26.6427C141.851 26.6427 140.609 25.1378 140.227 23.3701V30.8468ZM140.227 21.7219C140.227 23.6329 141.254 25.305 143.571 25.305C145.649 25.305 147.226 23.8718 147.226 20.647C147.226 17.4222 145.649 15.989 143.571 15.989C141.254 15.989 140.227 17.6611 140.227 19.5721V21.7219Z" fill="#D1B06F"/>
</svg>
