<svg width="176" height="110" viewBox="0 0 176 110" fill="none" xmlns="http://www.w3.org/2000/svg">
<path d="M67.8645 0.84063C68.2223 0.598 68.5409 0.306352 68.8472 0C68.8154 15.6141 68.9845 31.2283 68.9355 46.8449C71.2245 48.4428 73.516 50.0456 75.8124 51.6362C75.8124 45.0827 75.8026 38.5293 75.8198 31.9782C80.2656 28.9417 84.6599 25.8291 89.1057 22.7877C89.113 23.9199 89.1375 25.0547 89.0714 26.1845C87.4685 27.2408 85.8951 28.3388 84.3413 29.4612C84.3854 41.2202 84.3339 52.9768 84.3413 64.7383C84.0741 68.5885 84.2114 72.4583 84.1648 76.3184C83.9393 76.0341 83.6796 75.7865 83.3855 75.5807C80.9567 73.9803 78.5892 72.2917 76.1825 70.657C75.7169 70.4413 75.9374 69.8531 75.8737 69.4634C75.8737 64.65 75.8222 59.8391 75.8198 55.0281C70.6902 51.4573 65.546 47.9061 60.4115 44.345C60.3699 35.4951 60.4238 26.6477 60.414 17.8027C60.6983 13.8177 60.5047 9.81796 60.6027 5.83048C63.0609 4.22765 65.4234 2.47532 67.8645 0.84063Z" fill="#5E4B3C"/>
<path d="M99.7281 44.3319C95.2946 47.3268 90.9297 50.4467 86.5084 53.4563V50.1355C88.0181 49.013 89.6136 47.991 91.1429 46.8783C91.1306 37.8103 91.1772 28.7423 91.1306 19.6743C88.121 17.4024 84.9619 15.2751 81.8396 13.1502C79.7589 14.655 77.6242 16.0765 75.541 17.5789C75.5631 16.449 75.541 15.3192 75.5974 14.1943C77.2198 13.1894 79.8667 11.2852 81.9009 9.88574C87.4005 13.6943 94.4809 18.5886 99.7453 22.2231C99.7673 29.5903 99.8286 36.9623 99.7281 44.3319Z" fill="#D1B06F"/>
<path d="M115.082 54.0352C110.043 57.6257 102.818 62.5812 97.2843 66.4486C95.3457 65.1055 92.6718 63.2013 90.917 62.0812C90.868 60.9539 90.8729 59.824 90.8852 58.6942C92.8336 60.1108 95.2378 61.8018 97.2769 63.1767C100.054 61.2504 104.335 58.2849 106.592 56.6943C106.583 47.6141 106.497 38.5363 106.531 29.456C104.965 28.3556 103.397 27.2478 101.801 26.1744C101.772 25.0445 101.779 23.9221 101.796 22.7922C105.958 25.6474 110.891 29.0737 115.107 31.9999C115.082 39.4676 115.06 48.962 115.082 54.0352Z" fill="#D1B06F"/>
<path d="M2.64467 101.819H0V74.9719H2.64467V87.6744C3.2858 84.7091 5.36949 82.1847 9.056 82.1847C14.1049 82.1847 17.1102 86.1517 17.1102 92.2024C17.1102 98.2931 14.1049 102.26 9.056 102.26C5.36949 102.26 3.2858 99.7357 2.64467 96.7704V101.819ZM2.64467 94.0055C2.64467 97.2112 4.36772 100.056 8.25458 100.056C11.7808 100.056 14.4255 97.6119 14.4255 92.2024C14.4255 86.8329 11.7808 84.3886 8.25458 84.3886C4.36772 84.3886 2.64467 87.1935 2.64467 90.3992V94.0055Z" fill="#5E4B3C"/>
<path d="M24.1671 101.819H21.5224V82.5854H24.1671V87.8346C24.8883 84.7893 27.0121 82.1446 30.2979 82.1446C32.5419 82.1446 34.3851 83.5871 34.3851 86.2318C34.3851 87.6744 34.0245 88.8765 33.6638 89.5176H30.8188C31.3397 88.9166 31.8206 87.6744 31.8206 86.5123C31.8206 85.2701 31.0993 84.1481 29.3362 84.1481C26.4511 84.1481 24.1671 87.3538 24.1671 90.6797V101.819Z" fill="#5E4B3C"/>
<path d="M45.0643 102.22C39.7749 102.22 36.0884 98.2931 36.0884 92.2024C36.0884 86.1116 39.7749 82.1847 45.0643 82.1847C50.3536 82.1847 54.0802 86.1116 54.0802 92.2024C54.0802 98.2931 50.3536 102.22 45.0643 102.22ZM45.0643 99.9761C48.871 99.9761 51.4356 97.2914 51.4356 92.2024C51.4356 87.0733 48.871 84.3485 45.0643 84.3485C41.2976 84.3485 38.7331 87.0733 38.7331 92.2024C38.7331 97.2914 41.2976 99.9761 45.0643 99.9761Z" fill="#5E4B3C"/>
<path d="M64.4072 101.819H61.0012L55.7519 82.5854H58.6771L61.8427 95.5683L62.7242 99.8559L63.8863 95.5683L67.9735 82.5854H71.2192L75.3065 95.5683L76.4685 99.8559L77.3501 95.5683L80.4756 82.5854H83.4408L78.1916 101.819H74.7855L70.6983 88.9967L69.6164 84.7893L68.4944 88.9967L64.4072 101.819Z" fill="#5E4B3C"/>
<path d="M88.8125 101.819H86.1678V82.5854H88.8125V87.9549C89.4937 84.8293 91.6976 82.1847 95.5444 82.1847C99.3511 82.1847 101.916 84.4286 101.916 88.8364V101.819H99.271V89.4375C99.271 86.312 97.8284 84.3886 94.5026 84.3886C90.4554 84.3886 88.8125 87.3538 88.8125 90.6797V101.819Z" fill="#5E4B3C"/>
<path d="M110.126 109.272H107.481V82.5851H110.126V87.634C110.767 84.6287 112.851 82.1043 116.537 82.1043C121.546 82.1043 124.552 86.1114 124.552 92.162C124.552 98.2528 121.546 102.22 116.537 102.22C112.851 102.22 110.767 99.6954 110.126 96.7301V109.272ZM110.126 93.9652C110.126 97.1709 111.849 99.9759 115.736 99.9759C119.222 99.9759 121.867 97.5716 121.867 92.162C121.867 86.7525 119.222 84.3482 115.736 84.3482C111.849 84.3482 110.126 87.1532 110.126 90.3589V93.9652Z" fill="#D1B06F"/>
<path d="M135.136 102.22C131.369 102.22 128.844 99.9759 128.844 95.528V82.5851H131.449V94.967C131.449 98.0525 132.892 99.9759 136.177 99.9759C140.345 99.9759 141.948 97.0507 141.948 93.6847V82.5851H144.552V101.819H141.948V96.3294C141.266 99.5351 139.103 102.22 135.136 102.22Z" fill="#D1B06F"/>
<path d="M152.819 101.819H150.174V74.9717H152.819V101.819Z" fill="#D1B06F"/>
<path d="M161.075 109.272H158.431V82.5851H161.075V87.634C161.717 84.6287 163.8 82.1043 167.487 82.1043C172.496 82.1043 175.501 86.1114 175.501 92.162C175.501 98.2528 172.496 102.22 167.487 102.22C163.8 102.22 161.717 99.6954 161.075 96.7301V109.272ZM161.075 93.9652C161.075 97.1709 162.799 99.9759 166.685 99.9759C170.172 99.9759 172.816 97.5716 172.816 92.162C172.816 86.7525 170.172 84.3482 166.685 84.3482C162.799 84.3482 161.075 87.1532 161.075 90.3589V93.9652Z" fill="#D1B06F"/>
</svg>
