<svg width="236" height="175" viewBox="0 0 236 175" fill="none" xmlns="http://www.w3.org/2000/svg">
<g clip-path="url(#clip0_525_1749)">
<path d="M196.469 108.723C196.469 108.723 199.043 111.257 202.047 107.895L199.741 105.447H196.823L196.469 108.723Z" fill="#575A89"/>
<path opacity="0.1" d="M196.748 105.447L196.394 108.723C196.394 108.723 198.968 111.257 201.972 107.895" fill="#5E4B3C"/>
<path d="M201.079 105.894C201.079 105.894 202.115 108.612 202.866 109.433C203.617 110.255 204.797 115.941 203.224 115.297C201.651 114.653 198.648 109.863 198.468 109.041C198.287 108.219 198.219 105.894 198.219 105.894H201.079Z" fill="#FBBEBE"/>
<path opacity="0.1" d="M193.417 135.573C193.417 135.573 188.232 137.182 187.447 135.788C187.247 135.434 187.149 134.814 187.114 134.086C188.187 133.923 191.452 133.473 193.22 133.812C193.314 134.807 193.417 135.573 193.417 135.573Z" fill="#5E4B3C"/>
<path d="M197.646 80.2192L198.719 81.0774L199.828 91.0536L200.935 101.066C200.935 101.066 201.364 102.068 201.722 101.961C202.081 101.854 202.044 107.895 202.044 107.895C202.044 107.895 197.938 105.37 196.466 108.723L195.321 100.637C195.321 100.637 193.853 92.3773 193.89 91.7337C193.926 91.0901 193.139 84.1175 193.139 84.1175L197.646 80.2192Z" fill="#575A89"/>
<path opacity="0.1" d="M193.519 162.612C192.895 162.635 189.346 162.612 189.346 162.612C189.294 162.557 189.245 162.5 189.2 162.44C190.103 162.131 192.064 161.668 193.519 162.612Z" fill="#5E4B3C"/>
<path opacity="0.1" d="M193.733 122.111C193.204 122.129 192.674 122.113 192.147 122.061L189.719 95.9536C191.268 96.9662 193.121 115.494 193.733 122.111Z" fill="#5E4B3C"/>
<path opacity="0.1" d="M195.572 91.4481C195.572 91.4481 197.61 88.4445 197.898 89.3026C198.185 90.1608 195.572 91.4481 195.572 91.4481Z" fill="#5E4B3C"/>
<path opacity="0.1" d="M195.716 92.448C195.716 92.448 197.726 89.9808 197.919 90.9462C198.112 91.9117 195.716 92.448 195.716 92.448Z" fill="#5E4B3C"/>
<path opacity="0.1" d="M189.174 75.4199C189.174 75.4199 192.192 75.613 192.212 76.0421C192.231 76.4712 189.174 75.4199 189.174 75.4199Z" fill="#5E4B3C"/>
<path opacity="0.1" d="M193.377 82.3626C193.347 82.3412 193.317 82.324 193.287 82.3047C194.059 82.9998 193.93 84.5188 192.982 85.7717C192.034 87.0246 190.594 87.5459 189.719 86.9838C189.747 87.0074 189.77 87.0332 189.8 87.0568C190.658 87.7133 192.16 87.1984 193.151 85.9025C194.143 84.6067 194.239 83.0213 193.377 82.3626Z" fill="#5E4B3C"/>
<path opacity="0.1" d="M230.222 156.617C233.413 156.617 236 156.18 236 155.641C236 155.102 233.413 154.665 230.222 154.665C227.031 154.665 224.444 155.102 224.444 155.641C224.444 156.18 227.031 156.617 230.222 156.617Z" fill="#5E4B3C"/>
<path d="M217.577 167.561C222.341 167.561 226.204 166.908 226.204 166.102C226.204 165.297 222.341 164.644 217.577 164.644C212.813 164.644 208.95 165.297 208.95 166.102C208.95 166.908 212.813 167.561 217.577 167.561Z" fill="#5E4B3C"/>
<path d="M221.143 163.719C221.536 163.398 221.824 162.965 221.966 162.477C222.072 161.985 221.861 161.393 221.391 161.213C220.864 161.011 220.299 161.378 219.873 161.747C219.446 162.116 218.954 162.537 218.394 162.46C218.682 162.199 218.898 161.868 219.02 161.499C219.141 161.13 219.165 160.736 219.089 160.355C219.065 160.197 218.998 160.049 218.896 159.926C218.602 159.613 218.073 159.746 217.721 159.992C216.605 160.778 216.294 162.292 216.288 163.657C216.176 163.165 216.27 162.653 216.268 162.155C216.266 161.657 216.127 161.082 215.702 160.818C215.438 160.678 215.142 160.608 214.844 160.617C214.342 160.597 213.784 160.647 213.441 161.014C213.011 161.471 213.125 162.234 213.496 162.73C213.868 163.225 214.43 163.547 214.947 163.893C215.363 164.14 215.718 164.478 215.985 164.882C216.016 164.939 216.042 164.998 216.062 165.06H219.205C219.909 164.702 220.56 164.251 221.143 163.719V163.719Z" fill="#5E4B3C"/>
<path opacity="0.1" d="M2.54004 83.4609C6.26663 97.8631 14.1489 110.313 26.6052 116.348C52.5003 128.89 110.901 122.422 154.487 114.996C177.033 111.156 196.85 100.558 211.246 85.6428L2.54004 83.4609Z" fill="#5E4B3C"/>
<path opacity="0.1" d="M231.104 15.668H207.189C206.054 15.668 205.123 14.827 205.123 13.7994C205.123 12.7717 206.054 11.9286 207.189 11.9286H211.326C210.189 11.9286 209.26 11.0876 209.26 10.0578C209.26 9.02796 210.189 8.18911 211.326 8.18911H208.374C207.237 8.18911 206.305 7.3481 206.305 6.3183C206.305 5.2885 207.237 4.44965 208.374 4.44965H220.856C218.086 3.28469 214.848 2.45656 211.118 2.02104C177.081 -1.93296 164.929 0.682298 160.642 3.3705C155.299 6.76293 149.364 9.11686 143.149 10.3088C122.149 14.2285 82.8775 18.9441 47.283 8.80699C29.5919 3.75882 16.4426 12.2783 8.5625 26.5195H235.258C234.962 22.381 234.076 18.5579 232.449 15.2132C232.064 15.5106 231.591 15.6706 231.104 15.668V15.668Z" fill="#5E4B3C"/>
<path opacity="0.1" d="M0.512715 53.3994C-0.405854 61.7755 -0.093605 70.2409 1.43953 78.5265L211.407 85.4755C217.187 79.481 222.098 72.7056 225.996 65.3472L0.512715 53.3994ZM83.5574 71.3244H79.4232C80.5603 71.3244 81.4914 72.1675 81.4914 73.1952C81.4914 74.2228 80.5603 75.0638 79.4232 75.0638H55.5083C54.3734 75.0638 53.4423 74.2228 53.4423 73.1952C53.4423 72.1675 54.3734 71.3244 55.5083 71.3244H59.6447C58.5076 71.3244 57.5786 70.4834 57.5786 69.4557C57.5786 68.428 58.5076 67.5849 59.6447 67.5849H56.6904C55.5533 67.5849 54.6222 66.7439 54.6222 65.7162C54.6222 64.6886 55.5533 63.8454 56.6904 63.8454H80.6054C81.7424 63.8454 82.6714 64.6864 82.6714 65.7162C82.6714 66.746 81.7424 67.5849 80.6054 67.5849H83.5574C84.6945 67.5849 85.6235 68.4259 85.6235 69.4557C85.6235 70.4855 84.6945 71.3244 83.5574 71.3244Z" fill="#5E4B3C"/>
<path opacity="0.1" d="M235.266 26.6484L6.03309 31.6902C3.24405 38.1758 1.3947 45.5088 0.542969 53.1078H231.25C232.752 48.6619 233.866 44.0945 234.58 39.4566C235.269 34.992 235.543 30.6732 235.266 26.6484ZM47.0856 43.1789H42.9514C44.0885 43.1789 45.0196 44.022 45.0196 45.0497C45.0196 46.0773 44.0885 46.9205 42.9514 46.9205H19.0364C17.9015 46.9205 16.9704 46.0773 16.9704 45.0497C16.9704 44.022 17.9015 43.1789 19.0364 43.1789H23.1728C22.0357 43.1789 21.1068 42.3379 21.1068 41.3102C21.1068 40.2826 22.0357 39.4394 23.1728 39.4394H20.2186C19.0815 39.4394 18.1504 38.5984 18.1504 37.5707C18.1504 36.5431 19.0815 35.6999 20.2186 35.6999H44.1335C45.2706 35.6999 46.1995 36.5409 46.1995 37.5707C46.1995 38.6005 45.2706 39.4394 44.1335 39.4394H47.0856C48.2227 39.4394 49.1516 40.2826 49.1516 41.3102C49.1516 42.3379 48.2227 43.1789 47.0856 43.1789Z" fill="#5E4B3C"/>
<path opacity="0.1" d="M116.943 167.574C169.904 167.574 212.838 163.624 212.838 158.752C212.838 153.88 169.904 149.93 116.943 149.93C63.9809 149.93 21.0469 153.88 21.0469 158.752C21.0469 163.624 63.9809 167.574 116.943 167.574Z" fill="#5E4B3C"/>
<path d="M214.678 85.8854C214.677 85.8704 214.677 85.8554 214.678 85.8404C214.678 85.8168 214.678 85.7953 214.678 85.7739C214.635 85.5282 214.543 85.2938 214.406 85.0852C213.915 84.2994 213.231 83.6524 212.419 83.2058C211.003 82.4292 209.057 82.0966 208.491 80.6142C208.317 80.155 208.313 79.6552 208.227 79.1746C208.077 78.4258 207.733 77.7297 207.228 77.1562C206.724 76.5827 206.078 76.1519 205.355 75.9071C204.681 75.6819 203.954 75.6196 203.299 75.3407C201.836 74.7186 201.064 73.1846 200.409 71.7665C199.563 69.9357 198.716 68.1042 197.869 66.2721C197.226 66.596 196.393 66.4437 195.79 66.0382C195.209 65.6057 194.747 65.0339 194.445 64.3755C193.572 62.6806 193.196 60.7605 192.171 59.1471C191.145 57.5338 189.097 56.2594 187.286 56.961C186.932 57.1376 186.567 57.2889 186.192 57.4136C184.641 57.7762 182.924 56.0041 181.596 56.8644C181.376 57.0059 181.196 57.2026 181.075 57.4351C181.074 57.4208 181.074 57.4065 181.075 57.3922C180.902 57.7412 180.806 58.1229 180.792 58.5121V58.5121C180.792 58.5915 180.792 58.6687 180.792 58.7438C180.792 58.7567 180.792 58.7695 180.792 58.7824C180.792 59.0914 180.811 59.4046 180.815 59.7178C180.82 59.9809 180.8 60.2438 180.755 60.503V60.4816C180.73 60.6275 180.693 60.771 180.644 60.9107C180.298 61.8375 179.341 62.4446 178.893 63.3157V63.2728C178.842 63.3675 178.799 63.4657 178.762 63.5667C178.682 63.795 178.641 64.035 178.64 64.2768C178.601 65.9138 180.337 67.4542 180.538 69.2113C180.682 70.4556 180.968 70.8547 182.025 71.5584L182.257 71.7128C182.165 71.7128 182.07 71.7257 181.965 71.7278C181.924 71.7286 181.883 71.7329 181.843 71.7407C181.656 71.6893 181.461 71.68 181.27 71.7134C181.079 71.7468 180.898 71.8221 180.74 71.9338C179.929 72.5774 178.011 72.0818 177.159 71.9338C176.308 71.7858 173.39 72.1848 172.982 73.8025C172.575 75.4201 171.875 78.7584 171.875 78.7584C171.875 78.7584 171.875 80.8759 171.616 81.2707C171.606 81.2984 171.606 81.3287 171.616 81.3565C171.616 81.9508 171.637 85.5229 171.062 86.4433C170.921 86.6578 170.931 87.1319 171.036 87.7155C170.431 88.4943 169.863 89.4039 169.964 90.0004C170.148 91.2211 172.624 95.0592 176.173 93.0039C176.173 93.0039 178.191 89.3117 175.651 87.3486L175.761 86.9195C176.529 87.8635 177.097 88.5415 177.097 88.5415C177.097 88.5415 177.127 88.6209 177.174 88.756H177.097C177.429 89.6582 177.63 90.6032 177.694 91.5622C177.684 91.9138 177.62 92.2619 177.505 92.5942H177.571C177.552 92.6671 177.531 92.7401 177.505 92.8087C177.38 93.171 177.147 93.4863 176.838 93.7119C175.063 94.9691 173.032 103.948 173.032 103.948C173.032 103.948 169.007 118.461 168.202 119.287C167.537 119.965 171.717 121.875 174.853 121.647C175.291 121.621 175.724 121.539 176.14 121.403C176.16 121.617 176.181 121.832 176.203 122.027C176.269 122.671 176.338 123.267 176.381 123.454C176.492 123.922 176.713 128.697 176.713 128.697C176.713 128.697 176.261 131.799 176.37 133.958C176.37 134.106 176.389 134.247 176.402 134.387L176.012 134.447C175.42 135.777 177.859 146.875 178.191 147.809C178.412 148.544 178.536 149.305 178.56 150.072C178.56 150.072 178.346 150.861 178.524 151.293C178.635 151.556 178.707 151.834 178.738 152.119C178.738 152.119 178.593 152.835 178.814 153.303C179.035 153.771 178.777 154.59 178.777 154.59C178.777 154.59 178.704 157.823 178.039 159.583C177.858 160.056 177.805 160.569 177.886 161.069C177.967 161.57 178.179 162.04 178.5 162.432C178.547 162.493 178.597 162.551 178.651 162.606C178.651 162.606 182.319 162.636 182.965 162.606H183.049C183.308 162.569 183.973 159.66 183.381 158.259C182.789 156.858 183.308 155.133 183.308 155.133V152.584C183.308 152.584 183.973 151.971 183.308 150.653C182.643 149.336 182.753 148.937 182.753 148.937C182.753 148.937 183.493 146.817 182.716 146.135C181.939 145.453 182.864 142.866 182.864 142.866L183.126 134.241C182.989 134.196 182.849 134.161 182.708 134.134C182.692 133.992 182.677 133.846 182.662 133.692C182.51 132.13 182.379 130.006 182.718 129.401C183.057 128.796 183.22 123.514 183.274 119.843L186.655 119.972C186.726 121.688 186.801 123.254 186.848 123.454C186.96 123.922 187.183 128.697 187.183 128.697C187.183 128.697 186.728 131.799 186.837 133.958C186.837 134.106 186.857 134.247 186.87 134.387L186.479 134.447C185.887 135.777 188.326 146.875 188.659 147.809C188.879 148.544 189.004 149.305 189.03 150.072C189.03 150.072 188.816 150.861 188.991 151.293C189.102 151.556 189.175 151.834 189.206 152.119C189.206 152.119 189.06 152.835 189.281 153.303C189.502 153.771 189.245 154.59 189.245 154.59C189.245 154.59 189.172 157.823 188.507 159.583C188.328 160.057 188.278 160.57 188.362 161.069C188.446 161.569 188.66 162.037 188.983 162.427C189.029 162.489 189.079 162.547 189.133 162.601C189.133 162.601 192.802 162.631 193.447 162.601H193.531C193.791 162.565 194.456 159.656 193.864 158.255C193.272 156.854 193.791 155.129 193.791 155.129V152.584C193.791 152.584 194.456 151.971 193.791 150.653C193.126 149.336 193.235 148.937 193.235 148.937C193.235 148.937 193.975 146.817 193.199 146.135C192.422 145.453 193.347 142.866 193.347 142.866L193.613 134.241C193.472 134.196 193.329 134.16 193.184 134.134C193.169 133.992 193.154 133.846 193.139 133.692C192.986 132.13 192.855 130.006 193.194 129.401C193.467 128.905 193.623 125.713 193.694 122.596C193.694 122.381 193.694 122.167 193.711 121.952C195.265 121.887 196.812 121.714 198.341 121.433C198.341 121.433 196.533 115.037 197.086 113.997C197.324 113.548 196.981 111.161 196.511 108.588C197.166 109.119 197.981 109.413 198.824 109.425C199.633 110.98 202.093 114.559 203.479 115.11C205.106 115.754 203.885 110.047 203.11 109.221C202.744 108.77 202.435 108.275 202.192 107.747C202.214 107.721 202.237 107.7 202.259 107.676C202.28 107.653 202.297 101.605 201.926 101.714C201.555 101.824 201.113 100.815 201.113 100.815L199.967 90.7598L199.487 86.5505C199.888 86.8466 200.364 87.0354 200.774 87.3293C201.89 88.1467 202.254 89.582 202.744 90.8521C203.147 91.8969 203.713 92.9331 204.642 93.5896C205.571 94.2461 206.934 94.4199 207.86 93.7548C208.719 93.1305 208.972 92.0042 209.16 90.9765C210.718 91.5236 212.608 90.0604 212.406 88.4621C212.357 88.0673 212.211 87.6361 212.417 87.2907C212.829 86.6085 214.134 87.0054 214.563 86.3317C214.635 86.2152 214.672 86.0804 214.67 85.9434C214.676 85.9133 214.678 85.9005 214.678 85.8854ZM193.844 91.4163C193.821 91.8004 194.349 94.8855 194.778 97.327C194.426 95.8059 193.72 94.1818 192.33 93.0683C192.33 93.0683 192.33 92.9911 192.313 92.8538H192.33C192.33 92.8538 192.272 92.2402 192.263 91.367C192.266 90.593 192.323 89.8201 192.435 89.0542V89.0349H192.407C192.407 88.9706 192.424 88.9041 192.435 88.8397C192.52 88.1934 192.696 87.5622 192.956 86.9646C193.071 86.7304 193.204 86.5052 193.353 86.2909C193.583 88.3655 193.866 91.028 193.844 91.4163V91.4163ZM194.999 98.5649C195.187 99.6183 195.323 100.358 195.323 100.358L196.462 108.181V108.217C195.848 104.915 195.065 101.435 195.065 101.435C195.145 100.479 195.123 99.5166 194.999 98.5649V98.5649Z" fill="url(#paint0_linear_525_1749)"/>
<path d="M181.037 69.6402C180.822 67.6579 178.677 65.948 179.32 64.0622C179.67 63.0345 180.764 62.4059 181.133 61.3847C181.378 60.711 181.268 59.9709 181.27 59.2543C181.272 58.5377 181.44 57.7375 182.036 57.3406C183.324 56.4824 184.98 58.2481 186.482 57.8877C186.845 57.7635 187.198 57.6129 187.539 57.4371C189.292 56.7399 191.274 58.0099 192.259 59.6147C193.244 61.2195 193.613 63.1332 194.458 64.8195C194.747 65.4707 195.194 66.0393 195.758 66.4736C196.342 66.877 197.14 67.0293 197.771 66.7075L200.227 72.1783C200.871 73.5878 201.609 75.1153 203.016 75.7354C203.647 76.0121 204.351 76.0743 205.003 76.2996C205.712 76.5496 206.343 76.9815 206.832 77.5519C207.321 78.1223 207.653 78.8113 207.792 79.5499C207.876 80.0305 207.878 80.5282 208.047 80.9852C208.594 82.4612 210.476 82.7916 211.847 83.5597C212.64 84.0069 213.305 84.6504 213.778 85.4284C213.992 85.7995 214.177 86.2865 213.947 86.6512C213.533 87.3206 212.274 86.9259 211.875 87.606C211.673 87.9492 211.815 88.3783 211.875 88.7731C212.07 90.3628 210.24 91.8196 208.734 91.2746C208.551 92.298 208.305 93.42 207.477 94.0401C206.586 94.7051 205.267 94.5292 204.368 93.877C203.469 93.2248 202.924 92.1929 202.534 91.1523C202.059 89.8865 201.705 88.4577 200.626 87.6446C200.236 87.3528 199.768 87.164 199.386 86.8701C198.528 86.2136 198.099 85.1301 197.792 84.081C197.395 82.7723 197.08 81.4272 196.505 80.1914C195.93 78.9556 195.02 77.8057 193.774 77.2415C192.605 76.7158 191.257 76.7502 190.049 76.3232C187.97 75.5895 186.432 73.841 184.364 73.0171C183.703 72.7392 183.076 72.385 182.498 71.9616C181.457 71.2772 181.174 70.8803 181.037 69.6402Z" fill="#3F3D56"/>
<g opacity="0.1">
<path d="M181.229 60.9641C181.274 60.8802 181.312 60.7935 181.345 60.7045C181.588 60.0308 181.481 59.2907 181.483 58.5741C181.483 58.3351 181.505 58.0966 181.549 57.8618C181.351 58.2857 181.255 58.75 181.268 59.2177C181.266 59.7948 181.335 60.3998 181.229 60.9641Z" fill="#5E4B3C"/>
<path d="M207.678 93.3663C206.788 94.0292 205.468 93.8554 204.569 93.2011C203.67 92.5467 203.123 91.5191 202.743 90.4742C202.269 89.2084 201.917 87.7796 200.836 86.9665C200.448 86.6747 199.978 86.4838 199.598 86.192C198.74 85.5355 198.311 84.4521 198.002 83.4137C197.605 82.105 197.292 80.7598 196.715 79.524C196.138 78.2883 195.232 77.1383 193.984 76.5741C192.817 76.0485 191.469 76.0828 190.261 75.6559C188.18 74.9221 186.642 73.1736 184.576 72.3498C183.915 72.071 183.288 71.7168 182.707 71.2942C181.69 70.5927 181.42 70.1958 181.27 68.9579C181.055 67.0999 179.167 65.4802 179.461 63.7295C179.414 63.8242 179.371 63.9216 179.335 64.0213C178.691 65.9092 180.837 67.6191 181.051 69.5994C181.191 70.8373 181.48 71.2342 182.489 71.9357C183.069 72.3583 183.696 72.7125 184.357 72.9913C186.423 73.8151 187.962 75.5658 190.043 76.2973C191.25 76.7264 192.598 76.69 193.765 77.2156C195.014 77.7798 195.91 78.9319 196.496 80.1655C197.082 81.3991 197.395 82.74 197.783 84.0552C198.099 85.0935 198.513 86.177 199.379 86.8335C199.768 87.1252 200.238 87.3162 200.617 87.608C201.69 88.4211 202.05 89.8499 202.525 91.1157C202.915 92.1562 203.462 93.186 204.361 93.8383C205.26 94.4905 206.579 94.6664 207.47 94.0035C208.038 93.5744 208.328 92.92 208.519 92.2185C208.349 92.671 208.058 93.068 207.678 93.3663V93.3663Z" fill="#5E4B3C"/>
<path d="M212.088 86.932C212.006 87.0858 211.97 87.2602 211.985 87.434C212.47 86.9556 213.564 87.2366 213.946 86.6209C214.034 86.4687 214.069 86.2911 214.044 86.1167C213.547 86.5887 212.452 86.3076 212.088 86.932Z" fill="#5E4B3C"/>
<path d="M208.936 90.601C208.895 90.8155 208.854 91.0451 208.803 91.2682C210.116 91.678 211.633 90.6246 211.847 89.2944C211.326 90.3178 210.038 91.0022 208.936 90.601Z" fill="#5E4B3C"/>
</g>
<path d="M183.808 70.672C183.808 70.672 184.523 72.1138 182.414 72.1438C180.305 72.1738 183.772 81.5064 183.772 81.5064L187.277 85.9688L191.639 83.6089L191.89 77.0997L192.212 73.1672C192.212 73.1672 188.136 71.8434 188.887 70.0928C189.637 68.3421 183.808 70.672 183.808 70.672Z" fill="#FBBEBE"/>
<path d="M178.589 119.838L192.461 120.375L190.852 114.509L183.864 114.368L178.589 119.838Z" fill="#575A89"/>
<path opacity="0.1" d="M180.518 119.838L194.392 120.375L192.783 114.509L185.793 114.368L180.518 119.838Z" fill="#5E4B3C"/>
<path d="M183.128 129.521C182.8 130.132 182.926 132.248 183.075 133.812C183.169 134.807 183.272 135.573 183.272 135.573C183.272 135.573 178.086 137.182 177.301 135.788C177.102 135.434 177.003 134.814 176.969 134.086C176.861 131.941 177.301 128.849 177.301 128.849C177.301 128.849 177.087 124.095 176.979 123.63C176.936 123.443 176.87 122.851 176.806 122.209C176.711 121.257 176.621 120.197 176.621 120.197L183.701 116.442C183.701 116.442 183.701 117.146 183.688 118.23C183.649 121.632 183.536 128.77 183.128 129.521Z" fill="#FBBEBE"/>
<path opacity="0.1" d="M183.272 135.573C183.272 135.573 178.087 137.182 177.301 135.788C177.102 135.434 177.003 134.814 176.969 134.086C178.041 133.923 181.307 133.473 183.075 133.812C183.169 134.807 183.272 135.573 183.272 135.573Z" fill="#5E4B3C"/>
<path d="M183.45 162.605H183.369C182.744 162.629 179.196 162.605 179.196 162.605C179.144 162.551 179.095 162.494 179.05 162.434C178.736 162.041 178.529 161.574 178.449 161.078C178.368 160.582 178.416 160.074 178.589 159.602C179.232 157.849 179.303 154.631 179.303 154.631C179.303 154.631 179.554 153.809 179.34 153.343C179.125 152.878 179.267 152.163 179.267 152.163C179.234 151.881 179.162 151.604 179.052 151.342C178.874 150.913 179.089 150.125 179.089 150.125C179.064 149.362 178.944 148.606 178.73 147.873C178.409 146.944 176.049 135.895 176.621 134.571C176.621 134.571 181.627 133.713 183.523 134.357L183.272 142.938C183.272 142.938 182.378 145.513 183.129 146.193C183.879 146.873 183.165 148.982 183.165 148.982C183.165 148.982 183.058 149.374 183.701 150.698C184.345 152.022 183.701 152.629 183.701 152.629V155.167C183.701 155.167 183.201 156.883 183.772 158.278C184.343 159.672 183.701 162.56 183.45 162.605Z" fill="#3F3D56"/>
<path d="M193.274 129.521C192.945 130.132 193.072 132.248 193.22 133.812C193.314 134.807 193.417 135.573 193.417 135.573C193.417 135.573 188.232 137.182 187.447 135.788C187.247 135.434 187.148 134.814 187.114 134.086C187.007 131.941 187.447 128.849 187.447 128.849C187.447 128.849 187.232 124.095 187.125 123.629C187.067 123.378 186.966 120.984 186.887 118.837C186.82 117.004 186.767 115.348 186.767 115.348L193.846 116.442C193.846 116.442 193.846 119.555 193.759 122.754C193.681 125.856 193.538 129.036 193.274 129.521Z" fill="#FBBEBE"/>
<path d="M193.596 162.605H193.515C192.891 162.629 189.342 162.605 189.342 162.605C189.29 162.551 189.241 162.493 189.196 162.433C188.883 162.041 188.675 161.574 188.595 161.078C188.514 160.582 188.562 160.073 188.735 159.601C189.379 157.84 189.443 154.622 189.443 154.622C189.443 154.622 189.694 153.8 189.479 153.335C189.265 152.869 189.406 152.155 189.406 152.155C189.373 151.872 189.301 151.596 189.192 151.333C189.014 150.904 189.228 150.117 189.228 150.117C189.204 149.354 189.083 148.597 188.87 147.864C188.548 146.935 186.188 135.886 186.761 134.562C186.761 134.562 191.766 133.704 193.663 134.348L193.412 142.929C193.412 142.929 192.517 145.504 193.268 146.184C194.019 146.864 193.305 148.973 193.305 148.973C193.305 148.973 193.197 149.366 193.841 150.689C194.485 152.013 193.841 152.62 193.841 152.62V155.158C193.841 155.158 193.341 156.875 193.912 158.269C194.482 159.664 193.847 162.56 193.596 162.605Z" fill="#3F3D56"/>
<path opacity="0.1" d="M186.597 72.3584C189.382 72.3584 191.639 70.1011 191.639 67.3166C191.639 64.5322 189.382 62.2749 186.597 62.2749C183.813 62.2749 181.556 64.5322 181.556 67.3166C181.556 70.1011 183.813 72.3584 186.597 72.3584Z" fill="#5E4B3C"/>
<path d="M186.597 72.144C189.382 72.144 191.639 69.8867 191.639 67.1023C191.639 64.3178 189.382 62.0605 186.597 62.0605C183.813 62.0605 181.556 64.3178 181.556 67.1023C181.556 69.8867 183.813 72.144 186.597 72.144Z" fill="#FBBEBE"/>
<path opacity="0.1" d="M176.621 120.197L183.701 116.442C183.701 116.442 183.701 117.146 183.688 118.23C182.654 118.847 181.094 119.776 179.595 120.654C178.779 121.132 177.983 121.596 177.301 121.984C177.143 122.07 176.977 122.142 176.806 122.199C176.711 121.257 176.621 120.197 176.621 120.197Z" fill="#5E4B3C"/>
<path opacity="0.1" d="M193.847 116.434C193.847 116.434 193.847 119.547 193.759 122.746H193.733C193.204 122.765 192.674 122.748 192.148 122.696C191.223 122.598 190.483 122.353 190.217 121.868C189.678 120.924 188.17 119.723 186.896 118.828C186.829 116.996 186.775 115.34 186.775 115.34L193.847 116.434Z" fill="#5E4B3C"/>
<path d="M192.529 89.1678C192.35 90.5643 192.315 91.9756 192.426 93.3792C195.678 96.061 195.071 101.71 195.071 101.71C195.071 101.71 197.575 113.154 197.039 114.19C196.502 115.226 198.253 121.591 198.253 121.591C196.761 121.874 195.25 122.048 193.733 122.111C193.204 122.129 192.674 122.113 192.147 122.061C191.222 121.963 190.482 121.718 190.216 121.233C189.216 119.483 184.889 116.872 184.889 116.872C184.889 116.872 182.147 118.515 179.594 120.01C178.779 120.489 177.983 120.952 177.301 121.34C176.747 121.634 176.135 121.802 175.509 121.832C172.474 122.057 168.43 120.156 169.073 119.483C169.86 118.659 173.759 104.214 173.759 104.214C173.759 104.214 175.724 95.2736 177.44 94.0229C177.741 93.7956 177.966 93.482 178.084 93.1239C178.672 91.4913 177.689 88.8739 177.689 88.8739C177.689 88.8739 172.148 82.045 172.396 81.6503C172.645 81.2555 172.647 79.1487 172.647 79.1487C172.647 79.1487 173.327 75.8233 173.72 74.2142C174.113 72.6052 176.938 72.2104 177.76 72.3542C178.582 72.4979 180.44 72.9978 181.225 72.3542C182.01 71.7106 183.336 72.6052 183.336 72.6052L186.593 73.502L189.521 71.7856C189.521 71.7856 192.456 71.9358 192.707 72.3284C192.958 72.721 196.82 73.4741 196.82 73.4741C198.785 74.7957 198.714 81.0903 198.714 81.0903C198.714 81.0903 193.994 85.2009 193.029 87.312C192.779 87.9051 192.611 88.5294 192.529 89.1678V89.1678Z" fill="#575A89"/>
<path d="M173.188 80.6846L172.401 81.65C172.401 81.65 172.474 85.7971 171.864 86.799C171.255 87.8009 173.546 93.6643 174.405 93.3061C175.263 92.9478 177.194 83.7954 177.194 83.6882C177.194 83.5809 173.188 80.6846 173.188 80.6846Z" fill="#575A89"/>
<path d="M173.118 86.5845C173.118 86.5845 170.614 89.1225 170.792 90.3389C170.97 91.5554 173.367 95.3764 176.799 93.3232C176.799 93.3232 179.983 87.3354 173.118 86.5845Z" fill="#575A89"/>
<path opacity="0.1" d="M183.369 162.612C182.744 162.635 179.196 162.612 179.196 162.612C179.144 162.557 179.095 162.5 179.05 162.44C179.957 162.131 181.918 161.668 183.369 162.612Z" fill="#5E4B3C"/>
<path opacity="0.1" d="M179.849 99.7231C179.302 104.971 179.482 115.385 179.596 120.01C178.78 120.489 177.984 120.952 177.302 121.34C176.748 121.634 176.137 121.802 175.511 121.832C175.283 120.433 178.433 106.065 179.849 99.7231Z" fill="#5E4B3C"/>
<path opacity="0.1" d="M180.517 96.7451C180.502 96.8202 180.242 97.9616 179.848 99.7229C180.002 98.219 180.217 97.1399 180.517 96.7451Z" fill="#5E4B3C"/>
<path opacity="0.1" d="M189.228 96.1792C189.228 96.1792 192.268 115.273 183.266 117.633C183.263 117.625 189.494 116.679 189.228 96.1792Z" fill="#5E4B3C"/>
<path opacity="0.1" d="M182.843 64.1372C183.004 64.1244 183.166 64.1411 183.321 64.1866C183.549 64.3001 183.754 64.4542 183.926 64.6414C184.206 64.8752 184.54 65.0343 184.898 65.1037C185.256 65.1731 185.626 65.1506 185.973 65.0383C186.217 64.929 186.477 64.8566 186.743 64.8238C187.153 64.8238 187.507 65.1241 187.719 65.4674C187.931 65.8107 188.041 66.2183 188.223 66.5852C188.406 66.952 188.697 67.2996 189.099 67.3897C189.291 67.3972 189.48 67.4408 189.656 67.5184C189.764 67.6061 189.847 67.7209 189.897 67.8509C190.231 68.574 190.497 69.4278 191.212 69.7818C191.475 69.9036 191.761 69.9659 192.051 69.9642C192.345 69.9858 192.64 69.9327 192.909 69.8097C193.173 69.6622 193.391 69.4447 193.54 69.1811C193.986 68.4431 194.037 67.5291 193.932 66.6731C193.801 65.5932 193.417 64.5596 192.81 63.6567C192.171 62.7434 191.301 62.0161 190.289 61.5491C189.277 61.0821 188.159 60.8921 187.05 60.9985C186.662 61.042 186.279 61.1137 185.902 61.213C184.537 61.5778 183.199 62.26 182.371 63.4035C182.17 63.6889 181.95 63.9599 181.712 64.2145C182.087 64.178 182.465 64.1458 182.843 64.1372Z" fill="#5E4B3C"/>
<path d="M182.843 63.9229C183.004 63.9101 183.166 63.9268 183.321 63.9722C183.549 64.0857 183.754 64.2398 183.926 64.4271C184.206 64.6609 184.54 64.8199 184.898 64.8893C185.256 64.9587 185.626 64.9362 185.973 64.824C186.217 64.7146 186.477 64.6423 186.743 64.6094C187.153 64.6094 187.507 64.9098 187.719 65.253C187.931 65.5963 188.041 66.0039 188.223 66.3708C188.406 66.7377 188.697 67.0852 189.099 67.1753C189.291 67.1828 189.48 67.2265 189.656 67.3041C189.764 67.3918 189.847 67.5065 189.897 67.6366C190.231 68.3596 190.497 69.2135 191.212 69.5675C191.475 69.6893 191.761 69.7515 192.051 69.7498C192.345 69.7714 192.64 69.7183 192.909 69.5954C193.173 69.4479 193.391 69.2303 193.54 68.9668C193.986 68.2287 194.037 67.3148 193.932 66.4588C193.801 65.3789 193.417 64.3453 192.81 63.4423C192.171 62.529 191.301 61.8018 190.289 61.3348C189.277 60.8677 188.159 60.6777 187.05 60.7841C186.662 60.8277 186.279 60.8994 185.902 60.9987C184.537 61.3634 183.199 62.0456 182.371 63.1891C182.17 63.4746 181.95 63.7456 181.712 64.0001C182.087 63.9636 182.465 63.9315 182.843 63.9229Z" fill="#3F3D56"/>
<path opacity="0.1" d="M177.373 75.9287C177.373 75.9287 177.624 77.9325 176.766 78.4324C175.907 78.9323 177.373 75.9287 177.373 75.9287Z" fill="#5E4B3C"/>
<path opacity="0.1" d="M189.812 89.511C189.083 89.5213 188.371 89.2872 187.791 88.8459H187.615C187.013 89.3959 186.222 89.6932 185.407 89.6762C184.983 89.686 184.562 89.6097 184.168 89.4519C183.775 89.2941 183.418 89.058 183.118 88.758H182.884C182.266 89.261 181.491 89.5291 180.694 89.5145C179.898 89.5 179.132 89.2039 178.533 88.6786L177.694 88.6636C177.694 88.6636 178.677 91.281 178.089 92.9136L192.427 93.1689C192.316 91.7653 192.35 90.354 192.53 88.9575V88.9382L191.743 88.9232C191.176 89.316 190.501 89.5216 189.812 89.511Z" fill="#5E4B3C"/>
<path opacity="0.1" d="M189.812 89.9402C189.083 89.9505 188.371 89.7164 187.791 89.2751H187.615C187.013 89.8251 186.222 90.1224 185.407 90.1054C184.983 90.1152 184.562 90.0389 184.168 89.8811C183.775 89.7233 183.418 89.4872 183.118 89.1872H182.884C182.266 89.6902 181.491 89.9583 180.694 89.9437C179.898 89.9292 179.132 89.6331 178.533 89.1078L177.694 89.0928C177.694 89.0928 178.677 91.7102 178.089 93.3428L192.427 93.5981C192.316 92.1945 192.35 90.7832 192.53 89.3867V89.3674L191.743 89.3524C191.176 89.7452 190.501 89.9508 189.812 89.9402Z" fill="#5E4B3C"/>
<path d="M189.812 89.7254C189.083 89.7357 188.371 89.5015 187.791 89.0603H187.615C187.013 89.6102 186.222 89.9075 185.407 89.8906C184.983 89.9004 184.562 89.8241 184.168 89.6662C183.775 89.5084 183.418 89.2723 183.118 88.9723H182.884C182.266 89.4754 181.491 89.7434 180.694 89.7289C179.898 89.7144 179.132 89.4182 178.533 88.8929L177.694 88.8779C177.694 88.8779 178.677 91.4953 178.089 93.128L192.427 93.3833C192.316 91.9797 192.35 90.5684 192.53 89.1719V89.1525L191.743 89.1375C191.176 89.5303 190.501 89.7359 189.812 89.7254V89.7254Z" fill="#3F3D56"/>
<path opacity="0.1" d="M181.842 73.5898C181.842 73.5898 178.823 73.7829 178.804 74.212C178.784 74.6411 181.842 73.5898 181.842 73.5898Z" fill="#5E4B3C"/>
<path opacity="0.1" d="M176.795 85.6108C176.031 84.2335 176.13 82.7124 176.994 82.1353C176.962 82.1503 176.928 82.1631 176.896 82.1803C175.947 82.7081 175.823 84.2892 176.608 85.7138C177.393 87.1384 178.809 87.8592 179.758 87.34C179.789 87.322 179.819 87.3019 179.848 87.28C178.902 87.709 177.559 86.9882 176.795 85.6108Z" fill="#5E4B3C"/>
<path opacity="0.1" d="M177.817 73.9956L177.54 74.4246L176.834 74.0492L177.205 73.4785C177.451 73.5945 177.661 73.7728 177.817 73.9956V73.9956Z" fill="#5E4B3C"/>
<path d="M173.333 89.8739C173.333 89.8739 173.961 86.9175 173.118 85.9778C172.275 85.0381 172.545 80.1122 173.832 80.2195C175.12 80.3268 177.051 84.2228 176.729 85.0467C176.407 85.8705 175.19 90.0884 175.19 90.0884L173.333 89.8739Z" fill="#FBBEBE"/>
<path opacity="0.1" d="M193.519 68.544C193.37 68.8076 193.152 69.0251 192.888 69.1726C192.619 69.2956 192.324 69.3487 192.03 69.3271C191.74 69.3288 191.454 69.2665 191.191 69.1447C190.476 68.7886 190.21 67.9347 189.876 67.2139C189.833 67.0838 189.758 66.967 189.657 66.8749C189.483 66.7959 189.296 66.75 189.105 66.7397C188.704 66.6496 188.415 66.2999 188.23 65.9352C188.046 65.5705 187.936 65.1672 187.726 64.8175C187.516 64.4677 187.16 64.161 186.75 64.1738C186.483 64.2092 186.223 64.2851 185.98 64.3991C185.632 64.5105 185.263 64.5323 184.905 64.4626C184.547 64.3928 184.213 64.2337 183.933 64C183.761 63.8128 183.556 63.6587 183.328 63.5452C183.173 63.4998 183.011 63.4831 182.849 63.4959C182.603 63.4959 182.358 63.5195 182.111 63.5388C181.989 63.699 181.858 63.8523 181.719 63.9979C182.094 63.9657 182.472 63.9335 182.849 63.925C183.011 63.9121 183.173 63.9289 183.328 63.9743C183.556 64.0878 183.761 64.2419 183.933 64.4291C184.213 64.6628 184.547 64.8219 184.905 64.8916C185.263 64.9614 185.632 64.9396 185.98 64.8282C186.223 64.7142 186.483 64.6383 186.75 64.6029C187.16 64.6029 187.514 64.9033 187.726 65.2465C187.938 65.5898 188.048 65.9974 188.23 66.3643C188.412 66.7312 188.704 67.0787 189.105 67.1688C189.296 67.1791 189.483 67.225 189.657 67.304C189.765 67.3917 189.848 67.5064 189.897 67.6365C190.232 68.3595 190.498 69.2134 191.212 69.5674C191.475 69.6892 191.761 69.7515 192.051 69.7498C192.346 69.7714 192.641 69.7182 192.909 69.5953C193.173 69.4478 193.392 69.2303 193.54 68.9667C193.873 68.3602 194.022 67.6699 193.969 66.98C193.953 67.5309 193.798 68.0689 193.519 68.544V68.544Z" fill="#5E4B3C"/>
<path d="M174.282 92.2185C175.349 92.2185 176.213 91.6325 176.213 90.9098C176.213 90.187 175.349 89.6011 174.282 89.6011C173.216 89.6011 172.352 90.187 172.352 90.9098C172.352 91.6325 173.216 92.2185 174.282 92.2185Z" fill="#575A89"/>
<path d="M111.345 163.757C147.899 163.757 177.531 134.125 177.531 97.5713C177.531 61.0178 147.899 31.3853 111.345 31.3853C74.7917 31.3853 45.1592 61.0178 45.1592 97.5713C45.1592 134.125 74.7917 163.757 111.345 163.757Z" fill="#5E4B3C"/>
<path d="M146.073 130.832C146.073 141.28 129.648 131.724 112.038 131.724C94.4284 131.724 76.6172 140.885 76.6172 130.437C76.6172 124.479 82.294 116.194 90.438 110.176C96.5738 105.64 104.109 102.392 111.678 102.392C119.461 102.392 127.086 105.908 133.168 110.736C140.844 116.822 146.073 125 146.073 130.832Z" fill="#444053"/>
<path d="M133.166 110.731C123.805 109.322 106.876 107.603 90.4375 110.171C96.5734 105.636 104.108 102.388 111.677 102.388C119.459 102.388 127.083 105.904 133.166 110.731Z" fill="#F6F8FB"/>
<path opacity="0.05" d="M76.6171 50.8506C76.6171 50.8506 56.6797 63.5965 56.8428 83.5338C57.0058 103.471 76.6171 50.8506 76.6171 50.8506Z" fill="#5E4B3C"/>
<path d="M177.505 14.8525C177.505 14.8525 159.441 13.7648 161.571 26.4227C161.571 26.4227 161.142 28.6582 163.176 29.6752C163.176 29.6752 163.208 28.7376 165.027 29.0551C165.676 29.1636 166.335 29.1953 166.99 29.1495C167.877 29.0893 168.719 28.7413 169.389 28.1584V28.1584C169.389 28.1584 174.467 26.0623 176.443 17.7617C176.443 17.7617 177.904 15.951 177.846 15.4875L174.798 16.7877C174.798 16.7877 175.838 18.9867 175.012 20.8146C175.012 20.8146 174.913 16.8692 174.328 16.9529C174.21 16.9722 172.744 17.7145 172.744 17.7145C172.744 17.7145 174.536 21.5462 173.174 24.3288C173.174 24.3288 173.686 19.6089 172.174 17.9912L170.028 19.2442C170.028 19.2442 172.122 23.2003 170.702 26.4292C170.702 26.4292 171.067 21.4775 169.578 19.5488L167.632 21.0656C167.632 21.0656 169.599 24.966 168.4 27.6435C168.4 27.6435 168.243 21.8787 167.211 21.4432C167.211 21.4432 165.51 22.945 165.251 23.5607C165.251 23.5607 166.598 26.3905 165.763 27.8838C165.763 27.8838 165.251 24.0435 164.83 24.022C164.83 24.022 163.135 26.5665 162.957 28.3128C162.957 28.3128 163.032 25.7169 164.418 23.7796C164.418 23.7796 162.779 24.0606 161.824 25.1247C161.824 25.1247 162.088 23.3247 164.828 23.1681C164.828 23.1681 166.229 21.2373 166.604 21.1214C166.604 21.1214 163.869 20.8918 162.21 21.6277C162.21 21.6277 163.669 19.9307 167.104 20.7009L169.035 19.1347C169.035 19.1347 165.435 18.6413 163.907 19.1862C163.907 19.1862 165.665 17.6844 169.552 18.7786L171.644 17.5278C171.644 17.5278 168.574 16.867 166.744 17.0987C166.744 17.0987 168.675 16.0582 172.255 17.1867L173.757 16.5152C173.757 16.5152 171.507 16.0732 170.848 16.0046C170.189 15.9359 170.155 15.7514 170.155 15.7514C171.584 15.5191 173.05 15.6892 174.388 16.2427C174.388 16.2427 177.559 15.052 177.505 14.8525Z" fill="#5E4B3C"/>
<path d="M158.978 9.22553C158.978 9.22553 150.825 8.73208 151.778 14.4518C151.778 14.4518 151.587 15.4623 152.503 15.9214C152.503 15.9214 152.516 15.4923 153.339 15.6425C153.632 15.6906 153.93 15.705 154.226 15.6854C154.626 15.6568 155.007 15.4995 155.311 15.237V15.237C155.311 15.237 157.605 14.2887 158.497 10.5385C158.497 10.5385 159.158 9.72112 159.141 9.51087L157.763 10.0987C157.763 10.0987 158.235 11.092 157.864 11.918C157.864 11.918 157.819 10.1352 157.555 10.1781C157.502 10.1781 156.839 10.5214 156.839 10.5214C156.839 10.5214 157.65 12.2527 157.038 13.5099C157.038 13.5099 157.27 11.3774 156.588 10.6458L155.618 11.2122C155.618 11.2122 156.564 13.0015 155.923 14.4603C155.923 14.4603 156.086 12.2227 155.414 11.3516L154.534 12.036C154.534 12.036 155.423 13.7974 154.882 15.0074C154.882 15.0074 154.811 12.4029 154.344 12.2055C154.344 12.2055 153.575 12.8835 153.457 13.1624C153.457 13.1624 154.067 14.4496 153.689 15.1168C153.689 15.1168 153.457 13.3812 153.26 13.3748C153.26 13.3748 152.494 14.5226 152.415 15.3056C152.452 14.5769 152.679 13.8705 153.073 13.2568C152.632 13.3403 152.225 13.5514 151.902 13.8639C151.902 13.8639 152.02 13.0508 153.262 12.98C153.262 12.98 153.895 12.109 154.065 12.0553C154.065 12.0553 152.829 11.9524 152.08 12.2849C152.08 12.2849 152.739 11.5168 154.292 11.8558L155.15 11.15C155.15 11.15 153.524 10.9354 152.833 11.1714C152.833 11.1714 153.627 10.4935 155.384 10.9891L156.328 10.4227C156.328 10.4227 154.942 10.1245 154.114 10.2317C154.114 10.2317 154.987 9.76188 156.605 10.2725L157.281 9.96784C157.281 9.96784 156.264 9.76832 155.968 9.73828C155.672 9.70825 155.652 9.62458 155.652 9.62458C156.296 9.51744 156.957 9.59172 157.562 9.83912C157.562 9.83912 159.001 9.31564 158.978 9.22553Z" fill="#5E4B3C"/>
<path opacity="0.1" d="M10.0335 172.856C13.2243 172.856 15.8111 172.419 15.8111 171.88C15.8111 171.341 13.2243 170.904 10.0335 170.904C6.84258 170.904 4.25586 171.341 4.25586 171.88C4.25586 172.419 6.84258 172.856 10.0335 172.856Z" fill="#5E4B3C"/>
<path opacity="0.1" d="M43.5735 174.081C46.7644 174.081 49.3511 173.644 49.3511 173.105C49.3511 172.566 46.7644 172.129 43.5735 172.129C40.3826 172.129 37.7959 172.566 37.7959 173.105C37.7959 173.644 40.3826 174.081 43.5735 174.081Z" fill="#5E4B3C"/>
<path d="M12.7302 145.729C12.7302 145.729 13.908 147.27 12.1852 149.591C10.4625 151.913 9.04219 153.882 9.61073 155.332C9.61073 155.332 12.2088 151.012 14.3306 150.949C16.4525 150.887 15.0558 148.328 12.7302 145.729Z" fill="#5E4B3C"/>
<path opacity="0.1" d="M12.7311 145.729C12.8334 145.878 12.9142 146.041 12.9714 146.212C15.0352 148.637 16.1337 150.9 14.1513 150.956C12.302 151.009 10.075 154.313 9.55371 155.148C9.57194 155.213 9.59342 155.276 9.61807 155.339C9.61807 155.339 12.2162 151.018 14.338 150.956C16.4598 150.894 15.0567 148.328 12.7311 145.729Z" fill="#5E4B3C"/>
<path d="M14.9209 147.693C14.9209 148.235 14.8587 148.675 14.7836 148.675C14.7085 148.675 14.6484 148.246 14.6484 147.693C14.6484 147.139 14.7235 147.405 14.8008 147.405C14.878 147.405 14.9209 147.15 14.9209 147.693Z" fill="#FFD037"/>
<path d="M15.6637 148.341C15.1875 148.6 14.7734 148.757 14.7369 148.69C14.7005 148.624 15.0587 148.362 15.535 148.103C16.0113 147.843 15.8225 148.032 15.859 148.103C15.8955 148.173 16.1486 148.081 15.6637 148.341Z" fill="#FFD037"/>
<path d="M6.50506 145.729C6.50506 145.729 5.32723 147.27 7.04785 149.591C8.76847 151.913 10.1909 153.882 9.62235 155.332C9.62235 155.332 7.02211 151.012 4.90243 150.949C2.78276 150.887 4.17728 148.328 6.50506 145.729Z" fill="#5E4B3C"/>
<path opacity="0.1" d="M6.50524 145.729C6.40202 145.878 6.32106 146.04 6.26495 146.212C4.20107 148.637 3.10047 150.9 5.08498 150.956C6.93218 151.009 9.16126 154.313 9.68046 155.148C9.66296 155.213 9.64219 155.276 9.61824 155.339C9.61824 155.339 7.01799 151.018 4.89832 150.956C2.77865 150.894 4.17746 148.328 6.50524 145.729Z" fill="#5E4B3C"/>
<path d="M4.31445 147.693C4.31445 148.235 4.37453 148.675 4.44962 148.675C4.5247 148.675 4.58478 148.246 4.58478 147.693C4.58478 147.139 4.50969 147.405 4.4346 147.405C4.35951 147.405 4.31445 147.15 4.31445 147.693Z" fill="#FFD037"/>
<path d="M3.56104 148.341C4.03732 148.6 4.45353 148.757 4.49 148.69C4.52647 148.624 4.16819 148.362 3.69191 148.103C3.21562 147.843 3.40228 148.032 3.36795 148.103C3.33362 148.173 3.08475 148.081 3.56104 148.341Z" fill="#FFD037"/>
<path d="M4.69043 155.137C4.69043 155.137 7.98579 155.036 8.98126 154.328C9.97673 153.62 14.0509 152.777 14.2976 153.899C14.5443 155.021 19.2492 159.541 15.5291 159.572C11.8089 159.602 6.88519 158.99 5.89401 158.387C4.90283 157.784 4.69043 155.137 4.69043 155.137Z" fill="#A8A8A8"/>
<path opacity="0.2" d="M15.5913 159.188C11.8711 159.218 6.94741 158.606 5.95623 158.003C5.20104 157.544 4.90068 155.894 4.79985 155.133H4.69043C4.69043 155.133 4.90497 157.791 5.88972 158.394C6.87446 158.997 11.8046 159.608 15.5248 159.578C16.5975 159.578 16.9686 159.186 16.9493 158.621C16.7992 158.967 16.3915 159.181 15.5913 159.188Z" fill="#5E4B3C"/>
<path d="M87.814 88.8931C89.0734 88.8224 95.0012 88.3761 98.7664 86.2285C99.3711 85.8728 100.054 85.6716 100.755 85.6428C101.952 85.6085 103.33 86.1084 102.448 88.906C101.019 93.4822 92.7227 98.6312 87.5737 98.3458C82.6221 98.0712 76.748 96.076 72.8691 89.0605C72.4974 88.3855 72.3144 87.623 72.3391 86.8529C72.3842 85.4369 72.8991 83.6626 75.5573 85.6407C79.1487 88.3117 85.9625 88.8181 87.3292 88.8931C87.4907 88.9018 87.6525 88.9018 87.814 88.8931V88.8931Z" fill="#444053"/>
<path d="M135.442 88.8931C136.701 88.8224 142.629 88.3761 146.394 86.2285C146.999 85.8728 147.682 85.6716 148.383 85.6428C149.58 85.6085 150.958 86.1084 150.076 88.906C148.647 93.4822 140.351 98.6312 135.202 98.3458C130.25 98.0712 124.376 96.076 120.497 89.0605C120.125 88.3855 119.942 87.623 119.967 86.8529C120.012 85.4369 120.527 83.6626 123.185 85.6407C126.777 88.3117 133.59 88.8181 134.957 88.8931C135.119 88.9018 135.28 88.9018 135.442 88.8931V88.8931Z" fill="#444053"/>
</g>
<defs>
<linearGradient id="paint0_linear_525_1749" x1="191.401" y1="162.621" x2="191.401" y2="56.6284" gradientUnits="userSpaceOnUse">
<stop stop-color="#808080" stop-opacity="0.25"/>
<stop offset="0.54" stop-color="#808080" stop-opacity="0.12"/>
<stop offset="1" stop-color="#808080" stop-opacity="0.1"/>
</linearGradient>
<clipPath id="clip0_525_1749">
<rect width="236" height="174.081" fill="white"/>
</clipPath>
</defs>
</svg>
