<svg width="46" height="46" viewBox="0 0 46 46" fill="none" xmlns="http://www.w3.org/2000/svg">
<path d="M46 23C46 34.4802 37.5888 43.9956 26.5938 45.7206V29.6484H31.9529L32.9727 23H26.5938V18.6857C26.5938 16.8664 27.485 15.0938 30.342 15.0938H33.2422V9.43359C33.2422 9.43359 30.6098 8.98438 28.0932 8.98438C22.8401 8.98438 19.4062 12.1684 19.4062 17.9328V23H13.5664V29.6484H19.4062V45.7206C8.41117 43.9956 0 34.4802 0 23C0 10.2979 10.2979 0 23 0C35.7021 0 46 10.2979 46 23Z" fill="#1877F2"/>
<path d="M31.9529 29.6484L32.9727 23H26.5938V18.6856C26.5938 16.8667 27.4848 15.0938 30.3419 15.0938H33.2422V9.43359C33.2422 9.43359 30.6101 8.98438 28.0937 8.98438C22.84 8.98438 19.4062 12.1684 19.4062 17.9328V23H13.5664V29.6484H19.4062V45.7205C20.5773 45.9042 21.7774 46 23 46C24.2226 46 25.4227 45.9042 26.5938 45.7205V29.6484H31.9529Z" fill="white"/>
</svg>
