<svg width="18" height="18" viewBox="0 0 18 18" fill="none" xmlns="http://www.w3.org/2000/svg">
<path d="M4.14846e-05 4.68563C4.14846e-05 10.4156 7.59754 18.0056 13.32 18.0056C14.5725 18.0056 15.7425 17.5331 16.605 16.6706L17.355 15.8081C18.225 14.9381 18.225 13.4681 17.3175 12.5606C17.295 12.5381 15.4875 11.1506 15.4875 11.1506C14.5875 10.2956 13.17 10.2956 12.2775 11.1506L11.1825 12.0281C8.78254 11.0081 7.08004 9.29813 5.98504 6.81563L6.85504 5.72063C7.71754 4.82813 7.71754 3.40313 6.85504 2.51063C6.85504 2.51063 5.46754 0.703125 5.44504 0.680625C4.53754 -0.226875 3.06754 -0.226875 2.16004 0.680625L1.37254 1.36313C0.472541 2.25563 4.14846e-05 3.42563 4.14846e-05 4.67813V4.68563Z" fill="#CDCDCD"/>
</svg>
