<svg width="24" height="24" viewBox="0 0 24 24" fill="none" xmlns="http://www.w3.org/2000/svg">
<path d="M20.1099 5.0965C18.8629 3.5835 17.1299 2.75049 15.2279 2.75049C14.0839 2.75049 12.9779 3.02847 11.9999 3.55847C11.0229 3.02847 9.91693 2.75049 8.77193 2.75049C6.86993 2.75049 5.13594 3.5835 3.88994 5.0965C2.53394 6.7425 1.97193 8.9905 2.38493 11.1095C3.35993 16.1055 8.44793 19.5955 10.5909 20.8635C11.0259 21.1205 11.5129 21.2495 11.9999 21.2495C12.4869 21.2495 12.9749 21.1215 13.4099 20.8635C15.5519 19.5945 20.6409 16.1055 21.6159 11.1095C22.0279 8.9905 21.4659 6.7425 20.1099 5.0965ZM20.1429 10.8225C19.2849 15.2215 14.6139 18.4075 12.6449 19.5725C12.2479 19.8085 11.7519 19.8075 11.3549 19.5725C9.38593 18.4075 4.71492 15.2215 3.85692 10.8225C3.52792 9.13851 3.97392 7.35448 5.04692 6.05048C6.00392 4.88948 7.32593 4.25049 8.77193 4.25049C9.78993 4.25049 10.7659 4.53049 11.5959 5.06049C11.8419 5.21749 12.1579 5.21749 12.4039 5.06049C13.2339 4.53049 14.2099 4.25049 15.2279 4.25049C16.6729 4.25049 17.9959 4.88948 18.9529 6.05048C20.0259 7.35448 20.4709 9.13751 20.1429 10.8225Z" fill="#F3601E"/>
<path d="M20.1429 10.8225C19.2849 15.2215 14.6139 18.4075 12.6449 19.5725C12.2479 19.8085 11.7519 19.8075 11.3549 19.5725C9.38593 18.4075 4.71492 15.2215 3.85692 10.8225C3.52792 9.13851 3.97392 7.35448 5.04692 6.05048C6.00392 4.88948 7.32593 4.25049 8.77193 4.25049C9.78993 4.25049 10.7659 4.53049 11.5959 5.06049C11.8419 5.21749 12.1579 5.21749 12.4039 5.06049C13.2339 4.53049 14.2099 4.25049 15.2279 4.25049C16.6729 4.25049 17.9959 4.88948 18.9529 6.05048C20.0259 7.35448 20.4709 9.13751 20.1429 10.8225Z" fill="#F3601E"/>
</svg>
