<svg width="20" height="21" viewBox="0 0 20 21" fill="none" xmlns="http://www.w3.org/2000/svg">
<path d="M16.9263 3.20934L12.5284 1.25524C11.0134 0.582238 9.20732 0.582238 7.69232 1.25524L3.29437 3.20934C1.48437 4.01334 0.360352 5.64726 0.360352 7.47326V13.5233C0.360352 15.3493 1.48437 16.9822 3.29437 17.7872L7.69336 19.7413C8.44336 20.0743 9.26534 20.2413 10.0873 20.2443C10.0953 20.2443 10.1024 20.2493 10.1104 20.2493C10.1184 20.2493 10.1254 20.2453 10.1334 20.2443C10.9554 20.2413 11.7773 20.0743 12.5273 19.7413L16.9263 17.7872C18.7363 16.9832 19.8604 15.3493 19.8604 13.5233V7.47326C19.8604 5.64726 18.7363 4.01334 16.9263 3.20934ZM8.30133 2.62731C8.86833 2.37531 9.48935 2.25023 10.1104 2.25023C10.7314 2.25023 11.3534 2.37531 11.9194 2.62731L16.3173 4.58129C16.6133 4.71229 16.8793 4.87625 17.1183 5.06224L14.6083 6.17833L7.45734 3.00133L8.30133 2.62731ZM3.90234 4.58031L5.60938 3.82225L12.7604 6.99926L11.3113 7.6433C10.5893 7.9633 9.62737 7.9643 8.90637 7.6433L3.10034 5.06224C3.34134 4.87525 3.60734 4.71231 3.90234 4.58031ZM3.90338 16.4153C2.64338 15.8553 1.86035 14.7473 1.86035 13.5223V7.47228C1.86035 7.05128 1.95835 6.64723 2.13135 6.27123L8.29834 9.01232C8.62934 9.15932 8.99035 9.25027 9.36035 9.31127V18.6693C8.99635 18.6083 8.63937 18.5183 8.30237 18.3683L3.90338 16.4153ZM18.3604 13.5233C18.3604 14.7473 17.5773 15.8562 16.3173 16.4162L11.9183 18.3702C11.5823 18.5192 11.2244 18.6103 10.8604 18.6703V9.31225C11.2304 9.25125 11.5914 9.16127 11.9224 9.01427L18.0894 6.2733C18.2614 6.6493 18.3604 7.05323 18.3604 7.47423V13.5233Z" fill="#212121"/>
</svg>
