<svg width="32" height="32" viewBox="0 0 32 32" fill="none" xmlns="http://www.w3.org/2000/svg">
<path fill-rule="evenodd" clip-rule="evenodd" d="M24.2422 16.1865L25.5619 18.4481C26.0407 19.2782 26.1341 20.2647 25.8071 21.1669C25.4801 22.0571 24.7911 22.7549 23.8918 23.0677C22.6305 23.5007 21.3341 23.8376 20.0261 24.0541L20.026 24.0541C19.8976 24.0782 19.7691 24.1022 19.6407 24.1143C19.4305 24.1504 19.2202 24.1744 19.01 24.1985C18.7531 24.2346 18.4845 24.2586 18.2159 24.2827C17.4918 24.3549 16.756 24.391 16.0202 24.391C15.2728 24.391 14.5253 24.3549 13.7896 24.2827C13.4742 24.2586 13.1706 24.2225 12.8669 24.1744C12.6917 24.1504 12.5166 24.1263 12.3531 24.1022C12.2888 24.0902 12.2246 24.0812 12.1604 24.0722C12.0961 24.0631 12.0319 24.0541 11.9676 24.0421C10.6713 23.8135 9.39829 23.5007 8.13697 23.0677C7.20266 22.7549 6.49025 22.0571 6.17492 21.1789C5.85959 20.3128 5.97638 19.3143 6.47857 18.4361L7.79828 16.1744C8.07858 15.6812 8.33551 14.7308 8.33551 14.1534V11.9158C8.33551 7.54887 11.7808 4.01203 16.0202 4C20.248 4 23.6933 7.54887 23.6933 11.9158V14.1654C23.6933 14.7429 23.9502 15.6932 24.2422 16.1865ZM15.9852 14.4782C16.4757 14.4782 16.8728 14.0692 16.8728 13.5639V9.83458C16.8728 9.32932 16.4757 8.9203 15.9852 8.9203C15.4947 8.9203 15.0976 9.32932 15.0976 9.83458V13.5639C15.0976 14.0692 15.4947 14.4782 15.9852 14.4782ZM15.997 28C17.5153 28 18.8116 27.0015 19.3022 25.606C19.1036 25.6301 18.9167 25.6541 18.7299 25.6782C18.5721 25.7026 18.4091 25.716 18.2443 25.7295C18.1651 25.736 18.0854 25.7426 18.0058 25.7504C17.3518 25.8105 16.6861 25.8466 16.0204 25.8466C15.343 25.8466 14.6656 25.8105 13.9999 25.7504C13.7196 25.7263 13.4393 25.6902 13.1707 25.6541C13.0939 25.6428 13.0196 25.6342 12.9467 25.6257C12.8645 25.6161 12.784 25.6067 12.7036 25.594C12.8671 26.0872 13.1474 26.5684 13.5211 26.9293C14.1634 27.615 15.0744 28 15.997 28Z" fill="#255849"/>
</svg>
