<svg width="24" height="24" viewBox="0 0 24 24" fill="none" xmlns="http://www.w3.org/2000/svg">
<path fill-rule="evenodd" clip-rule="evenodd" d="M4 11.6288C4 15.834 7.42366 19.2576 11.6288 19.2576C15.834 19.2576 19.2576 15.834 19.2576 11.6288C19.2576 7.42366 15.834 4 11.6288 4C7.42366 4 4 7.42366 4 11.6288ZM5.11641 11.6288C5.11641 8.04141 8.03397 5.11641 11.6288 5.11641C15.2237 5.11641 18.1412 8.04141 18.1412 11.6288C18.1412 15.2162 15.2237 18.1412 11.6288 18.1412C8.03397 18.1412 5.11641 15.2162 5.11641 11.6288ZM19.0492 19.8382C19.1608 19.9498 19.3022 20.0019 19.4437 20.0019C19.5851 20.0019 19.7265 19.9498 19.8381 19.8382C20.054 19.6223 20.054 19.2651 19.8381 19.0492L18.3496 17.5607C18.1337 17.3448 17.7765 17.3448 17.5606 17.5607C17.3448 17.7765 17.3448 18.1338 17.5606 18.3496L19.0492 19.8382Z" fill="#AAAAAA"/>
</svg>
