<svg width="16" height="17" viewBox="0 0 16 17" fill="none" xmlns="http://www.w3.org/2000/svg">
<path d="M13.9564 8.2535L11.8805 10.2483L12.3704 13.0623C12.4504 13.5216 12.2651 13.9796 11.8865 14.2569C11.5005 14.5389 10.9964 14.5776 10.5711 14.3583L8.00045 13.0269L5.42979 14.3583C5.24713 14.453 5.04913 14.4996 4.85246 14.4996C4.59246 14.4996 4.33445 14.4176 4.11444 14.2569C3.73645 13.9796 3.55046 13.5216 3.63046 13.0623L4.12045 10.2483L2.04446 8.2535C1.70446 7.92683 1.58244 7.44626 1.72644 6.99959C1.87178 6.54759 2.25711 6.22563 2.73177 6.15763L5.60446 5.74617L6.88845 3.18286C7.09912 2.76153 7.52578 2.50024 8.00045 2.50024C8.47512 2.50024 8.90178 2.76219 9.11245 3.18286L10.3964 5.74617L13.2691 6.15763C13.7431 6.22563 14.1285 6.54759 14.2738 6.99959C14.4178 7.44626 14.2964 7.92683 13.9564 8.2535Z" fill="#FFB729"/>
</svg>
