<svg width="20" height="20" viewBox="0 0 20 20" fill="none" xmlns="http://www.w3.org/2000/svg">
<path d="M13.1182 0.453613H7.11816C3.53816 0.453613 0.618164 3.37361 0.618164 6.95361V12.9536C0.618164 16.5336 3.53816 19.4536 7.11816 19.4536H13.1182C16.6982 19.4536 19.6182 16.5336 19.6182 12.9536V6.95361C19.6182 3.37361 16.6982 0.453613 13.1182 0.453613ZM14.1182 10.9536H6.11816C5.56816 10.9536 5.11816 10.5036 5.11816 9.95361C5.11816 9.40361 5.56816 8.95361 6.11816 8.95361H14.1182C14.6682 8.95361 15.1182 9.40361 15.1182 9.95361C15.1182 10.5036 14.6682 10.9536 14.1182 10.9536Z" fill="#E7E7E7"/>
</svg>
