<svg width="20" height="19" viewBox="0 0 20 19" fill="none" xmlns="http://www.w3.org/2000/svg">
<path d="M17.858 2.34601C16.611 0.833008 14.878 0 12.976 0C11.832 0 10.726 0.277983 9.74797 0.807983C8.77097 0.277983 7.66497 0 6.51997 0C4.61797 0 2.88398 0.833008 1.63798 2.34601C0.281984 3.99201 -0.280021 6.24001 0.132979 8.35901C1.10798 13.355 6.19597 16.845 8.33897 18.113C8.77397 18.37 9.26097 18.499 9.74797 18.499C10.235 18.499 10.723 18.371 11.158 18.113C13.3 16.844 18.389 13.355 19.364 8.35901C19.776 6.24001 19.214 3.99201 17.858 2.34601ZM17.891 8.07202C17.033 12.471 12.362 15.657 10.393 16.822C9.99596 17.058 9.49998 17.057 9.10298 16.822C7.13398 15.657 2.46296 12.471 1.60496 8.07202C1.27596 6.38802 1.72197 4.60399 2.79497 3.29999C3.75197 2.13899 5.07397 1.5 6.51997 1.5C7.53797 1.5 8.51398 1.78 9.34398 2.31C9.58998 2.467 9.90596 2.467 10.152 2.31C10.982 1.78 11.958 1.5 12.976 1.5C14.421 1.5 15.744 2.13899 16.701 3.29999C17.774 4.60399 18.219 6.38702 17.891 8.07202Z" fill="#F3601E"/>
</svg>
