<svg width="30" height="30" viewBox="0 0 30 30" fill="none" xmlns="http://www.w3.org/2000/svg">
<rect width="30" height="30" rx="9.375" fill="#F3F3F3"/>
<path d="M21.0829 9.82249C20.1477 8.68774 18.8479 8.06299 17.4214 8.06299C16.5634 8.06299 15.7339 8.27148 15.0004 8.66898C14.2677 8.27148 13.4382 8.06299 12.5794 8.06299C11.1529 8.06299 9.85244 8.68774 8.91794 9.82249C7.90094 11.057 7.47944 12.743 7.78919 14.3322C8.52044 18.0792 12.3364 20.6968 13.9437 21.6478C14.2699 21.8405 14.6352 21.9373 15.0004 21.9373C15.3657 21.9373 15.7317 21.8413 16.0579 21.6478C17.6644 20.696 21.4812 18.0792 22.2124 14.3322C22.5214 12.743 22.0999 11.057 21.0829 9.82249ZM21.1077 14.117C20.4642 17.4163 16.9609 19.8058 15.4842 20.6795C15.1864 20.8565 14.8144 20.8558 14.5167 20.6795C13.0399 19.8058 9.53668 17.4163 8.89318 14.117C8.64643 12.854 8.98093 11.516 9.78568 10.538C10.5034 9.66723 11.4949 9.18799 12.5794 9.18799C13.3429 9.18799 14.0749 9.39799 14.6974 9.79549C14.8819 9.91324 15.1189 9.91324 15.3034 9.79549C15.9259 9.39799 16.6579 9.18799 17.4214 9.18799C18.5052 9.18799 19.4974 9.66723 20.2152 10.538C21.0199 11.516 21.3537 12.8533 21.1077 14.117Z" fill="#9F9F9F"/>
</svg>
