<svg width="30" height="30" viewBox="0 0 30 30" fill="none" xmlns="http://www.w3.org/2000/svg">
<rect width="30" height="30" rx="9.375" fill="#F3F3F3"/>
<path d="M18.33 8.32495C16.9725 8.32495 15.7575 8.98495 15 9.99745C14.2425 8.98495 13.0275 8.32495 11.67 8.32495C9.3675 8.32495 7.5 10.2 7.5 12.5175C7.5 13.41 7.6425 14.235 7.89 15C9.075 18.75 12.7275 20.9925 14.535 21.6075C14.79 21.6975 15.21 21.6975 15.465 21.6075C17.2725 20.9925 20.925 18.75 22.11 15C22.3575 14.235 22.5 13.41 22.5 12.5175C22.5 10.2 20.6325 8.32495 18.33 8.32495Z" fill="#D80027"/>
</svg>
